# xmcd
#
# Track frame offsets:
#       150
#       13584
#       27265
#       37045
#       49321
#       63339
#       76212
#       94387
#       110903
#       125781
#       137305
#       154475
#       170070
#
# Disc length: 2444 seconds
#
# Revision: 1
# Processed by: cddbd v1.5.2PL0 Copyright (c) Steve Scherf et al.
# Submitted via: FreeDbEdit v0.1
#
DISCID=b8098a0d
DTITLE=Cluster Pluckers - Old Time Gospel Favorites
DYEAR=1900
DGENRE=Gospel
TTITLE0=What a Friend We Have in Jesus
TTITLE1=Pass Me Not
TTITLE2=There Is Power in the Blood
TTITLE3=Lily of the Valley
TTITLE4=O Come Angel Band
TTITLE5=In the Sweet by and By
TTITLE6=Softly and Tenderly
TTITLE7=He Leadeth Me
TTITLE8=Where We'll Never Grow Old
TTITLE9='Tis So Sweet to Trust in Jesus
TTITLE10=When They Ring Those Golden Bells
TTITLE11=Sweet Hour of Prayer
TTITLE12=Keep on the Sunny Side
EXTD=
EXTT0=
EXTT1=
EXTT2=
EXTT3=
EXTT4=
EXTT5=
EXTT6=
EXTT7=
EXTT8=
EXTT9=
EXTT10=
EXTT11=
EXTT12=
PLAYORDER=
